Oswald-100-pole.ufo-BROKE.ufo
<glyph name="dollar" format="1">
  <advance width="889"/>
  <unicode hex="0024"/>
  <outline>
    <contour>
      <point x="464" y="-207" type="line"/>
      <point x="519" y="-207" type="line"/>
      <point x="519" y="-21.1804" type="line"/>
      <point x="704.928" y="-6.35325"/>
      <point x="833" y="99.9951"/>
      <point x="833" y="331" type="curve" smooth="yes"/>
      <point x="833" y="495"/>
      <point x="719" y="643"/>
      <point x="584" y="782" type="curve" smooth="yes"/>
      <point x="276" y="1097" type="line" smooth="yes"/>
      <point x="179" y="1197"/>
      <point x="149" y="1280"/>
      <point x="149" y="1358" type="curve" smooth="yes"/>
      <point x="149" y="1547"/>
      <point x="280" y="1625"/>
      <point x="448" y="1625" type="curve" smooth="yes"/>
      <point x="656" y="1625"/>
      <point x="740" y="1519"/>
      <point x="764" y="1258" type="curve"/>
      <point x="817" y="1267" type="line"/>
      <point x="800.763" y="1576.46"/>
      <point x="666.84" y="1669.72"/>
      <point x="471" y="1677.46" type="curve"/>
      <point x="471" y="1895" type="line"/>
      <point x="414" y="1895" type="line"/>
      <point x="414" y="1677.25" type="line"/>
      <point x="222.584" y="1667.25"/>
      <point x="91" y="1556.95"/>
      <point x="91" y="1355" type="curve" smooth="yes"/>
      <point x="91" y="1271"/>
      <point x="129" y="1165"/>
      <point x="228" y="1062" type="curve" smooth="yes"/>
      <point x="542" y="738" type="line"/>
      <point x="691" y="586"/>
      <point x="773" y="473"/>
      <point x="773" y="329" type="curve" smooth="yes"/>
      <point x="773" y="114"/>
      <point x="657" y="33"/>
      <point x="474" y="33" type="curve" smooth="yes"/>
      <point x="242" y="33"/>
      <point x="177" y="171"/>
      <point x="142" y="407" type="curve"/>
      <point x="87" y="387" type="line"/>
      <point x="110.744" y="137.683"/>
      <point x="217.689" y="-19.6251"/>
      <point x="464" y="-22.9464" type="curve"/>
    </contour>
  </outline>
</glyph>
<glyph name="slash" format="1">
  <advance width="640"/>
  <unicode hex="002F"/>
  <unicode hex="2215"/>
  <outline>
    <contour>
      <point x="38" y="0" type="line"/>
      <point x="99" y="0" type="line"/>
      <point x="602" y="1658" type="line"/>
      <point x="542" y="1658" type="line"/>
    </contour>
  </outline>
</glyph>
<glyph name="one" format="1">
  <advance width="772"/>
  <unicode hex="0031"/>
  <outline>
    <contour>
      <point x="416" y="0" type="line"/>
      <point x="480" y="0" type="line"/>
      <point x="480" y="1658" type="line"/>
      <point x="416" y="1658" type="line"/>
      <point x="355" y="1566"/>
      <point x="262" y="1479"/>
      <point x="198" y="1461" type="curve"/>
      <point x="198" y="1397" type="line"/>
      <point x="256" y="1414"/>
      <point x="348" y="1467"/>
      <point x="416" y="1565" type="curve"/>
    </contour>
  </outline>
</glyph>
<glyph name="two" format="1">
  <advance width="1010"/>
  <unicode hex="0032"/>
  <outline>
    <contour>
      <point x="122" y="0" type="line"/>
      <point x="835" y="0" type="line"/>
      <point x="835" y="56" type="line"/>
      <point x="193" y="56" type="line"/>
      <point x="649" y="741" type="line" smooth="yes"/>
      <point x="754" y="898"/>
      <point x="866" y="1075"/>
      <point x="866" y="1266" type="curve" smooth="yes"/>
      <point x="866" y="1524"/>
      <point x="741" y="1678"/>
      <point x="514" y="1678" type="curve" smooth="yes"/>
      <point x="248" y="1678"/>
      <point x="126" y="1543"/>
      <point x="126" y="1234" type="curve" smooth="yes"/>
      <point x="126" y="1209" type="line"/>
      <point x="187" y="1209" type="line"/>
      <point x="187.0" y="1214.6711967"/>
      <point x="187.028313047" y="1220.29781836"/>
      <point x="187.086852367" y="1225.87896449" type="curve" smooth="yes"/>
      <point x="189.605873717" y="1466.04277715"/>
      <point x="248.094591762" y="1622.0"/>
      <point x="515" y="1622" type="curve" smooth="yes"/>
      <point x="695" y="1622"/>
      <point x="804" y="1497"/>
      <point x="804" y="1286" type="curve" smooth="yes"/>
      <point x="804" y="1076"/>
      <point x="705" y="929"/>
      <point x="599" y="770" type="curve" smooth="yes"/>
      <point x="122" y="52" type="line"/>
    </contour>
  </outline>
</glyph>
<glyph name="seven" format="1">
  <advance width="1010"/>
  <unicode hex="0037"/>
  <outline>
    <contour>
      <point x="418" y="0" type="line"/>
      <point x="482" y="0" type="line"/>
      <point x="839" y="1625" type="line"/>
      <point x="839" y="1658" type="line"/>
      <point x="195" y="1658" type="line"/>
      <point x="195" y="1602" type="line"/>
      <point x="770" y="1602" type="line"/>
    </contour>
  </outline>
</glyph>
<glyph name="E" format="1">
  <advance width="792"/>
  <unicode hex="0045"/>
  <outline>
    <contour>
      <point x="161" y="0" type="line"/>
      <point x="712" y="0" type="line"/>
      <point x="712" y="56" type="line"/>
      <point x="225" y="56" type="line"/>
      <point x="225" y="834" type="line"/>
      <point x="622" y="834" type="line"/>
      <point x="622" y="889" type="line"/>
      <point x="225" y="889" type="line"/>
      <point x="225" y="1602" type="line"/>
      <point x="707" y="1602" type="line"/>
      <point x="707" y="1658" type="line"/>
      <point x="161" y="1658" type="line"/>
    </contour>
  </outline>
</glyph>
<glyph name="V" format="1">
  <advance width="909"/>
  <unicode hex="0056"/>
  <outline>
    <contour>
      <point x="426" y="0" type="line"/>
      <point x="506" y="0" type="line"/>
      <point x="885" y="1658" type="line"/>
      <point x="815" y="1658" type="line"/>
      <point x="466" y="97" type="line"/>
      <point x="94" y="1658" type="line"/>
      <point x="24" y="1658" type="line"/>
    </contour>
  </outline>
</glyph>
<glyph name="W" format="1">
  <advance width="1396"/>
  <unicode hex="0057"/>
  <outline>
    <contour>
      <point x="348" y="0" type="line"/>
      <point x="412" y="0" type="line"/>
      <point x="707" y="1545" type="line"/>
      <point x="1010" y="0" type="line"/>
      <point x="1073" y="0" type="line"/>
      <point x="1344" y="1658" type="line"/>
      <point x="1284" y="1658" type="line"/>
      <point x="1042" y="120" type="line"/>
      <point x="750" y="1608" type="line"/>
      <point x="665" y="1608" type="line"/>
      <point x="381" y="120" type="line"/>
      <point x="111" y="1658" type="line"/>
      <point x="51" y="1656" type="line"/>
    </contour>
  </outline>
</glyph>
<glyph name="backslash" format="1">
  <advance width="640"/>
  <unicode hex="005C"/>
  <outline>
    <contour>
      <point x="541" y="0" type="line"/>
      <point x="602" y="0" type="line"/>
      <point x="98" y="1658" type="line"/>
      <point x="38" y="1658" type="line"/>
    </contour>
  </outline>
</glyph>
<glyph name="asciicircum" format="1">
  <advance width="683"/>
  <unicode hex="005E"/>
  <unicode hex="0302"/>
  <outline>
    <contour>
      <point x="46" y="1107" type="line"/>
      <point x="91" y="1107" type="line"/>
      <point x="342" y="1627" type="line"/>
      <point x="592" y="1107" type="line"/>
      <point x="637" y="1107" type="line"/>
      <point x="380" y="1658" type="line"/>
      <point x="303" y="1658" type="line"/>
    </contour>
  </outline>
</glyph>
<glyph name="underscore" format="1">
  <advance width="650"/>
  <unicode hex="005F"/>
  <outline>
    <contour>
      <point x="0" y="-147" type="line"/>
      <point x="650" y="-147" type="line"/>
      <point x="650" y="-89" type="line"/>
      <point x="0" y="-89" type="line"/>
    </contour>
  </outline>
</glyph>
<glyph name="k" format="1">
  <advance width="747"/>
  <unicode hex="006B"/>
  <outline>
    <contour>
      <point x="118" y="0" type="line"/>
      <point x="182" y="0" type="line"/>
      <point x="182" y="440.09" type="line"/>
      <point x="372" y="690" type="line"/>
      <point x="656" y="0" type="line"/>
      <point x="721" y="0" type="line"/>
      <point x="418" y="735" type="line"/>
      <point x="743" y="1184" type="line"/>
      <point x="670" y="1184" type="line"/>
      <point x="182" y="523.323" type="line"/>
      <point x="182" y="1658" type="line"/>
      <point x="118" y="1658" type="line"/>
    </contour>
  </outline>
</glyph>
<glyph name="n" format="1">
  <advance width="761"/>
  <unicode hex="006E"/>
  <outline>
    <contour>
      <point x="118" y="0" type="line"/>
      <point x="182" y="0" type="line"/>
      <point x="182" y="1000.06" type="line"/>
      <point x="259.772" y="1091.69"/>
      <point x="356.333" y="1154"/>
      <point x="449" y="1154" type="curve" smooth="yes"/>
      <point x="524" y="1154"/>
      <point x="585" y="1117"/>
      <point x="585" y="948" type="curve" smooth="yes"/>
      <point x="585" y="0" type="line"/>
      <point x="650" y="0" type="line"/>
      <point x="650" y="939" type="line" smooth="yes"/>
      <point x="650" y="1157"/>
      <point x="551" y="1204"/>
      <point x="460" y="1204" type="curve" smooth="yes"/>
      <point x="355.073" y="1204"/>
      <point x="255.499" y="1146.66"/>
      <point x="182" y="1053.37" type="curve"/>
      <point x="182" y="1184" type="line"/>
      <point x="118" y="1184" type="line"/>
    </contour>
  </outline>
</glyph>
<glyph name="p" format="1">
  <advance width="780"/>
  <unicode hex="0070"/>
  <outline>
    <contour>
      <point x="120" y="-390" type="line"/>
      <point x="184" y="-390" type="line"/>
      <point x="184" y="101.943" type="line"/>
      <point x="223.438" y="50.1986"/>
      <point x="296.464" y="-20"/>
      <point x="407" y="-20" type="curve" smooth="yes"/>
      <point x="612" y="-20"/>
      <point x="678" y="131"/>
      <point x="678" y="494" type="curve" smooth="yes"/>
      <point x="678" y="698" type="line" smooth="yes"/>
      <point x="678" y="1057"/>
      <point x="619" y="1204"/>
      <point x="412" y="1204" type="curve" smooth="yes"/>
      <point x="299.654" y="1204"/>
      <point x="224.65" y="1136.58"/>
      <point x="184" y="1080.91" type="curve"/>
      <point x="184" y="1184" type="line"/>
      <point x="120" y="1184" type="line"/>
    </contour>
    <contour>
      <point x="407" y="30" type="curve" smooth="yes"/>
      <point x="312.392" y="30"/>
      <point x="233.476" y="91.4632"/>
      <point x="184" y="158.873" type="curve"/>
      <point x="184" y="1024.59" type="line"/>
      <point x="227.339" y="1076.19"/>
      <point x="309.688" y="1154"/>
      <point x="412" y="1154" type="curve" smooth="yes"/>
      <point x="581" y="1154"/>
      <point x="614" y="1035"/>
      <point x="614" y="699" type="curve" smooth="yes"/>
      <point x="614" y="490" type="line" smooth="yes"/>
      <point x="614" y="154"/>
      <point x="569" y="30"/>
    </contour>
  </outline>
</glyph>
<glyph name="r" format="1">
  <advance width="523"/>
  <unicode hex="0072"/>
  <outline>
    <contour>
      <point x="138" y="0" type="line"/>
      <point x="202" y="0" type="line"/>
      <point x="202" y="962.831" type="line"/>
      <point x="259.924" y="1065.5"/>
      <point x="359.185" y="1133"/>
      <point x="489" y="1133" type="curve" smooth="yes"/>
      <point x="503" y="1133" type="line"/>
      <point x="503" y="1194" type="line"/>
      <point x="489" y="1194" type="line" smooth="yes"/>
      <point x="396.61" y="1194"/>
      <point x="264.039" y="1133.73"/>
      <point x="202" y="1027.6" type="curve"/>
      <point x="202" y="1184" type="line"/>
      <point x="138" y="1184" type="line"/>
    </contour>
  </outline>
</glyph>
<glyph name="y" format="1">
  <advance width="753"/>
  <unicode hex="0079"/>
  <outline>
    <contour>
      <point x="69" y="-294" type="line"/>
      <point x="122" y="-294" type="line" smooth="yes"/>
      <point x="305" y="-294"/>
      <point x="379" y="-235"/>
      <point x="409" y="-110" type="curve"/>
      <point x="699" y="1184" type="line"/>
      <point x="637" y="1184" type="line"/>
      <point x="384" y="23" type="line"/>
      <point x="120" y="1184" type="line"/>
      <point x="59" y="1184" type="line"/>
      <point x="311" y="97" type="line" smooth="yes"/>
      <point x="324" y="41"/>
      <point x="343" y="-33"/>
      <point x="343" y="-67" type="curve" smooth="yes"/>
      <point x="343" y="-168"/>
      <point x="318" y="-238"/>
      <point x="69" y="-238" type="curve"/>
    </contour>
  </outline>
</glyph>
<glyph name="exclamdown" format="1">
  <advance width="396"/>
  <unicode hex="00A1"/>
  <outline>
    <contour>
      <point x="154" y="-436" type="line"/>
      <point x="239" y="-436" type="line"/>
      <point x="210" y="865" type="line"/>
      <point x="186.5" y="865" type="line"/>
    </contour>
    <contour>
      <point x="158" y="1101" type="line"/>
      <point x="242" y="1101" type="line"/>
      <point x="242" y="1222" type="line"/>
      <point x="158" y="1222" type="line"/>
    </contour>
  </outline>
</glyph>
<glyph name="currency" format="1">
  <advance width="1017"/>
  <unicode hex="00A4"/>
  <outline>
    <contour>
      <point x="57" y="381" type="line"/>
      <point x="219" y="543" type="line"/>
      <point x="295" y="471"/>
      <point x="398" y="427"/>
      <point x="512" y="428" type="curve"/>
      <point x="626" y="427"/>
      <point x="729" y="471"/>
      <point x="805" y="543" type="curve"/>
      <point x="967" y="381" type="line"/>
      <point x="997" y="411" type="line"/>
      <point x="834" y="573" type="line"/>
      <point x="903" y="650"/>
      <point x="945" y="754"/>
      <point x="945" y="866" type="curve" smooth="yes"/>
      <point x="945" y="979"/>
      <point x="903" y="1082"/>
      <point x="835" y="1159" type="curve"/>
      <point x="997" y="1321" type="line"/>
      <point x="967" y="1351" type="line"/>
      <point x="805" y="1189" type="line"/>
      <point x="729" y="1261"/>
      <point x="626" y="1305"/>
      <point x="512" y="1304" type="curve"/>
      <point x="398" y="1305"/>
      <point x="295" y="1261"/>
      <point x="219" y="1189" type="curve"/>
      <point x="57" y="1351" type="line"/>
      <point x="27" y="1321" type="line"/>
      <point x="190" y="1159" type="line"/>
      <point x="121" y="1082"/>
      <point x="79" y="979"/>
      <point x="79" y="866" type="curve" smooth="yes"/>
      <point x="79" y="754"/>
      <point x="121" y="650"/>
      <point x="190" y="573" type="curve"/>
      <point x="27" y="411" type="line"/>
    </contour>
    <contour>
      <point x="512" y="474" type="curve" smooth="yes"/>
      <point x="297" y="474"/>
      <point x="132" y="651"/>
      <point x="132" y="866" type="curve" smooth="yes"/>
      <point x="132" y="1082"/>
      <point x="297" y="1258"/>
      <point x="512" y="1258" type="curve" smooth="yes"/>
      <point x="728" y="1258"/>
      <point x="892" y="1082"/>
      <point x="892" y="866" type="curve" smooth="yes"/>
      <point x="892" y="651"/>
      <point x="728" y="474"/>
    </contour>
  </outline>
</glyph>
<glyph name="section" format="1">
  <advance width="752"/>
  <unicode hex="00A7"/>
  <outline>
    <contour>
      <point x="386" y="-20" type="curve" smooth="yes"/>
      <point x="543" y="-20"/>
      <point x="654" y="83"/>
      <point x="650" y="241" type="curve" smooth="yes"/>
      <point x="647" y="339"/>
      <point x="584" y="409"/>
      <point x="534" y="476" type="curve"/>
      <point x="613" y="514"/>
      <point x="695" y="561"/>
      <point x="707" y="679" type="curve" smooth="yes"/>
      <point x="722" y="822"/>
      <point x="649" y="906"/>
      <point x="545" y="1005" type="curve" smooth="yes"/>
      <point x="358" y="1183" type="line" smooth="yes"/>
      <point x="268" y="1269"/>
      <point x="190" y="1361"/>
      <point x="190" y="1443" type="curve" smooth="yes"/>
      <point x="190" y="1563"/>
      <point x="275" y="1625"/>
      <point x="374" y="1625" type="curve" smooth="yes"/>
      <point x="503" y="1625"/>
      <point x="558" y="1476"/>
      <point x="588" y="1379" type="curve"/>
      <point x="644" y="1396" type="line"/>
      <point x="600" y="1511"/>
      <point x="538" y="1675"/>
      <point x="379" y="1675" type="curve" smooth="yes"/>
      <point x="219" y="1675"/>
      <point x="131" y="1568"/>
      <point x="131" y="1439" type="curve" smooth="yes"/>
      <point x="131" y="1355"/>
      <point x="192" y="1282"/>
      <point x="260" y="1206" type="curve"/>
      <point x="168" y="1179"/>
      <point x="69" y="1112"/>
      <point x="69" y="993" type="curve" smooth="yes"/>
      <point x="69" y="942"/>
      <point x="92" y="869"/>
      <point x="159" y="799" type="curve" smooth="yes"/>
      <point x="381" y="567" type="line" smooth="yes"/>
      <point x="593" y="346"/>
      <point x="598" y="285"/>
      <point x="598" y="223" type="curve" smooth="yes"/>
      <point x="598" y="107"/>
      <point x="514" y="27"/>
      <point x="390" y="27" type="curve" smooth="yes"/>
      <point x="259" y="27"/>
      <point x="171" y="160"/>
      <point x="139" y="316" type="curve"/>
      <point x="88" y="298" type="line"/>
      <point x="128" y="136"/>
      <point x="216" y="-20"/>
    </contour>
    <contour>
      <point x="505" y="511" type="curve"/>
      <point x="206" y="833" type="line" smooth="yes"/>
      <point x="148" y="895"/>
      <point x="125" y="946"/>
      <point x="125" y="996" type="curve" smooth="yes"/>
      <point x="125" y="1089"/>
      <point x="190" y="1146"/>
      <point x="288" y="1171" type="curve"/>
      <point x="504" y="972" type="line" smooth="yes"/>
      <point x="622" y="864"/>
      <point x="674" y="790"/>
      <point x="659" y="680" type="curve" smooth="yes"/>
      <point x="647" y="594"/>
      <point x="569" y="538"/>
    </contour>
  </outline>
</glyph>
<glyph name="ordfeminine" format="1">
  <advance width="760"/>
  <unicode hex="00AA"/>
  <outline>
    <contour>
      <point x="349" y="744" type="curve" smooth="yes"/>
      <point x="447" y="744"/>
      <point x="535" y="797"/>
      <point x="570" y="873" type="curve"/>
      <point x="581" y="759" type="line"/>
      <point x="625" y="759" type="line"/>
      <point x="625" y="1365" type="line" smooth="yes"/>
      <point x="625" y="1591"/>
      <point x="571" y="1678"/>
      <point x="409" y="1678" type="curve" smooth="yes"/>
      <point x="255" y="1678"/>
      <point x="171" y="1619"/>
      <point x="167" y="1456" type="curve"/>
      <point x="221" y="1453" type="line"/>
      <point x="221" y="1624"/>
      <point x="325" y="1640"/>
      <point x="409" y="1640" type="curve" smooth="yes"/>
      <point x="522" y="1640"/>
      <point x="569" y="1586"/>
      <point x="569" y="1352" type="curve" smooth="yes"/>
      <point x="569" y="1287" type="line"/>
      <point x="161" y="1117"/>
      <point x="140" y="1062"/>
      <point x="140" y="936" type="curve" smooth="yes"/>
      <point x="140" y="816"/>
      <point x="221" y="744"/>
    </contour>
    <contour>
      <point x="349" y="782" type="curve" smooth="yes"/>
      <point x="282" y="782"/>
      <point x="194" y="811"/>
      <point x="194" y="932" type="curve" smooth="yes"/>
      <point x="194" y="1082"/>
      <point x="253" y="1104"/>
      <point x="569" y="1244" type="curve"/>
      <point x="569" y="929" type="line"/>
      <point x="522" y="845"/>
      <point x="452" y="782"/>
    </contour>
  </outline>
</glyph>
<glyph name="degree" format="1">
  <advance width="744"/>
  <unicode hex="00B0"/>
  <unicode hex="030A"/>
  <outline>
    <contour>
      <point x="373" y="1230" type="curve" smooth="yes"/>
      <point x="286" y="1230"/>
      <point x="183" y="1279"/>
      <point x="183" y="1430" type="curve" smooth="yes"/>
      <point x="183" y="1583"/>
      <point x="284" y="1633"/>
      <point x="371" y="1633" type="curve" smooth="yes"/>
      <point x="460" y="1633"/>
      <point x="563" y="1583"/>
      <point x="563" y="1430" type="curve" smooth="yes"/>
      <point x="563" y="1279"/>
      <point x="460" y="1230"/>
    </contour>
    <contour>
      <point x="372.334" y="1184.07" type="curve" smooth="yes"/>
      <point x="477.313" y="1184.07"/>
      <point x="619" y="1242"/>
      <point x="619" y="1431" type="curve" smooth="yes"/>
      <point x="619" y="1619"/>
      <point x="477.313" y="1677.28"/>
      <point x="372.334" y="1677.28" type="curve" smooth="yes"/>
      <point x="265.74" y="1677.28"/>
      <point x="126" y="1619"/>
      <point x="126" y="1431" type="curve" smooth="yes"/>
      <point x="126" y="1242"/>
      <point x="267.355" y="1184.07"/>
    </contour>
  </outline>
</glyph>
<glyph name="threesuperior" format="1">
  <advance width="795"/>
  <unicode hex="00B3"/>
  <outline>
    <contour>
      <point x="374.0" y="747.0" type="curve" smooth="yes"/>
      <point x="534.0" y="747.0"/>
      <point x="612.0" y="864.0"/>
      <point x="612.0" y="1022.0" type="curve" smooth="yes"/>
      <point x="612.0" y="1207.0"/>
      <point x="530.0" y="1253.0"/>
      <point x="477.0" y="1272.0" type="curve"/>
      <point x="541.0" y="1286.0"/>
      <point x="604.0" y="1359.0"/>
      <point x="604.0" y="1521.0" type="curve" smooth="yes"/>
      <point x="604.0" y="1650.0"/>
      <point x="544.0" y="1759.0"/>
      <point x="397.0" y="1759.0" type="curve" smooth="yes"/>
      <point x="232.0" y="1759.0"/>
      <point x="172.0" y="1668.0"/>
      <point x="172.0" y="1538.0" type="curve" smooth="yes"/>
      <point x="172.0" y="1529.0" type="line"/>
      <point x="241.0" y="1529.0" type="line"/>
      <point x="241.0" y="1541.0" type="line" smooth="yes"/>
      <point x="241.0" y="1648.0"/>
      <point x="286.0" y="1701.0"/>
      <point x="398.0" y="1701.0" type="curve" smooth="yes"/>
      <point x="489.0" y="1701.0"/>
      <point x="538.0" y="1641.0"/>
      <point x="538.0" y="1522.0" type="curve" smooth="yes"/>
      <point x="538.0" y="1360.0"/>
      <point x="492.0" y="1301.0"/>
      <point x="406.0" y="1301.0" type="curve" smooth="yes"/>
      <point x="327.0" y="1301.0" type="line"/>
      <point x="327.0" y="1240.0" type="line"/>
      <point x="406.0" y="1240.0" type="line" smooth="yes"/>
      <point x="491.0" y="1240.0"/>
      <point x="546.0" y="1155.0"/>
      <point x="546.0" y="1020.0" type="curve" smooth="yes"/>
      <point x="546.0" y="858.0"/>
      <point x="470.0" y="805.0"/>
      <point x="380.0" y="805.0" type="curve" smooth="yes"/>
      <point x="272.0" y="805.0"/>
      <point x="236.0" y="870.0"/>
      <point x="236.0" y="965.0" type="curve"/>
      <point x="236.0" y="983.0" type="line"/>
      <point x="167.0" y="983.0" type="line"/>
      <point x="167.0" y="970.0" type="line"/>
      <point x="167.0" y="839.0"/>
      <point x="230.0" y="747.0"/>
    </contour>
  </outline>
</glyph>
<glyph name="threequarters" format="1">
  <advance width="1499"/>
  <unicode hex="00BE"/>
  <outline>
    <contour>
      <point x="264" y="647" type="curve" smooth="yes"/>
      <point x="424" y="647"/>
      <point x="502" y="764"/>
      <point x="502" y="922" type="curve" smooth="yes"/>
      <point x="502" y="1107"/>
      <point x="416" y="1153"/>
      <point x="363" y="1172" type="curve"/>
      <point x="427" y="1186"/>
      <point x="494" y="1259"/>
      <point x="494" y="1421" type="curve" smooth="yes"/>
      <point x="494" y="1550"/>
      <point x="434" y="1659"/>
      <point x="287" y="1659" type="curve" smooth="yes"/>
      <point x="122" y="1659"/>
      <point x="62" y="1568"/>
      <point x="62" y="1438" type="curve"/>
      <point x="131" y="1441" type="line"/>
      <point x="131" y="1548"/>
      <point x="176" y="1601"/>
      <point x="288" y="1601" type="curve" smooth="yes"/>
      <point x="379" y="1601"/>
      <point x="428" y="1541"/>
      <point x="428" y="1422" type="curve" smooth="yes"/>
      <point x="428" y="1260"/>
      <point x="378" y="1201"/>
      <point x="292" y="1201" type="curve"/>
      <point x="292" y="1140" type="line"/>
      <point x="377" y="1140"/>
      <point x="436" y="1055"/>
      <point x="436" y="920" type="curve" smooth="yes"/>
      <point x="436" y="758"/>
      <point x="360" y="705"/>
      <point x="270" y="705" type="curve" smooth="yes"/>
      <point x="162" y="705"/>
      <point x="126" y="770"/>
      <point x="126" y="865" type="curve"/>
      <point x="57" y="870" type="line"/>
      <point x="57" y="739"/>
      <point x="120" y="647"/>
    </contour>
    <contour>
      <point x="1237" y="-19" type="line"/>
      <point x="1298" y="-19" type="line"/>
      <point x="1298" y="302" type="line"/>
      <point x="1432" y="302" type="line"/>
      <point x="1432" y="358" type="line"/>
      <point x="1298" y="358" type="line"/>
      <point x="1298" y="1121" type="line"/>
      <point x="1229" y="1121" type="line"/>
      <point x="909" y="354" type="line"/>
      <point x="909" y="302" type="line"/>
      <point x="1237" y="302" type="line"/>
    </contour>
    <contour>
      <point x="387" y="0" type="line"/>
      <point x="452" y="0" type="line"/>
      <point x="1062" y="1658" type="line"/>
      <point x="999" y="1658" type="line"/>
    </contour>
    <contour>
      <point x="974" y="358" type="line"/>
      <point x="1237" y="1010" type="line"/>
      <point x="1237" y="358" type="line"/>
    </contour>
  </outline>
</glyph>
<glyph name="germandbls" format="1">
  <advance width="967"/>
  <unicode hex="00DF"/>
  <outline>
    <contour>
      <point x="306.0" y="-24.0" type="line"/>
      <point x="804.688" y="-24.0"/>
      <point x="878.0" y="282.908"/>
      <point x="878.0" y="498.0" type="curve" smooth="yes"/>
      <point x="878.0" y="692.0"/>
      <point x="822.0" y="907.0"/>
      <point x="586.0" y="956.0" type="curve"/>
      <point x="722.0" y="988.0"/>
      <point x="784.0" y="1120.0"/>
      <point x="784.0" y="1319.0" type="curve" smooth="yes"/>
      <point x="784.0" y="1586.0"/>
      <point x="650.0" y="1707.0"/>
      <point x="466.0" y="1707.0" type="curve" smooth="yes"/>
      <point x="254.97" y="1707.0"/>
      <point x="136" y="1639"/>
      <point x="136" y="1249" type="curve" smooth="yes"/>
      <point x="136.0" y="0.0" type="line"/>
      <point x="200.0" y="0.0" type="line"/>
      <point x="200" y="1250" type="line" smooth="yes"/>
      <point x="200" y="1616"/>
      <point x="307.131" y="1659.0"/>
      <point x="461.0" y="1659.0" type="curve" smooth="yes"/>
      <point x="636.0" y="1659.0"/>
      <point x="722.0" y="1548.0"/>
      <point x="722.0" y="1318.0" type="curve" smooth="yes"/>
      <point x="722.0" y="1132.0"/>
      <point x="664.0" y="981.0"/>
      <point x="469.0" y="981.0" type="curve"/>
      <point x="462.0" y="926.0" type="line"/>
      <point x="747.0" y="926.0"/>
      <point x="818.0" y="699.0"/>
      <point x="818.0" y="491.0" type="curve" smooth="yes"/>
      <point x="818.0" y="301.199"/>
      <point x="744.087" y="31.0"/>
      <point x="306.0" y="31.0" type="curve"/>
    </contour>
  </outline>
</glyph>
<glyph name="eth" format="1">
  <advance width="822"/>
  <unicode hex="00F0"/>
  <outline>
    <contour>
      <point x="382" y="-24" type="curve" smooth="yes"/>
      <point x="617" y="-24"/>
      <point x="700" y="169"/>
      <point x="700" y="533" type="curve" smooth="yes"/>
      <point x="700" y="621" type="line" smooth="yes"/>
      <point x="700" y="965"/>
      <point x="590.287" y="1316.63"/>
      <point x="563" y="1384" type="curve"/>
      <point x="707" y="1421" type="line"/>
      <point x="707" y="1472" type="line"/>
      <point x="542" y="1430" type="line"/>
      <point x="459" y="1620"/>
      <point x="331" y="1687"/>
      <point x="155" y="1702" type="curve"/>
      <point x="150" y="1655" type="line"/>
      <point x="328" y="1632"/>
      <point x="428" y="1558"/>
      <point x="487" y="1412" type="curve"/>
      <point x="340" y="1374" type="line"/>
      <point x="340" y="1324" type="line"/>
      <point x="510" y="1367" type="line"/>
      <point x="544" y="1282"/>
      <point x="582" y="1148"/>
      <point x="607" y="1001" type="curve"/>
      <point x="543.564" y="1037.58"/>
      <point x="472" y="1055"/>
      <point x="415" y="1055" type="curve" smooth="yes"/>
      <point x="226" y="1053"/>
      <point x="85" y="941"/>
      <point x="95" y="536" type="curve" smooth="yes"/>
      <point x="97" y="456" type="line" smooth="yes"/>
      <point x="104" y="161"/>
      <point x="190.308" y="-24"/>
    </contour>
    <contour>
      <point x="384" y="30" type="curve" smooth="yes"/>
      <point x="255" y="30"/>
      <point x="157" y="146"/>
      <point x="157" y="504" type="curve" smooth="yes"/>
      <point x="157" y="902"/>
      <point x="245" y="1001"/>
      <point x="423" y="1001" type="curve" smooth="yes"/>
      <point x="478" y="1001"/>
      <point x="554.543" y="984.773"/>
      <point x="612" y="955" type="curve"/>
      <point x="617" y="931"/>
      <point x="640" y="778"/>
      <point x="640" y="633" type="curve" smooth="yes"/>
      <point x="640" y="178"/>
      <point x="578" y="30"/>
    </contour>
  </outline>
</glyph>
<glyph name="oslash" format="1">
  <advance width="750"/>
  <unicode hex="00F8"/>
  <outline>
    <contour>
      <point x="145" y="-109" type="line"/>
      <point x="661" y="1256" type="line"/>
      <point x="630" y="1269" type="line"/>
      <point x="114" y="-96" type="line"/>
    </contour>
    <component base="o"/>
  </outline>
</glyph>
<glyph name="dcroat" format="1">
  <advance width="803"/>
  <unicode hex="0111"/>
  <outline>
    <contour>
      <point x="367" y="-20" type="curve" smooth="yes"/>
      <point x="473.022" y="-20"/>
      <point x="544.535" y="44.5822"/>
      <point x="585" y="95.517" type="curve"/>
      <point x="585" y="0" type="line"/>
      <point x="649" y="0" type="line"/>
      <point x="649" y="1424" type="line"/>
      <point x="762" y="1424" type="line"/>
      <point x="762" y="1473" type="line"/>
      <point x="649" y="1473" type="line"/>
      <point x="649" y="1658" type="line"/>
      <point x="585" y="1658" type="line"/>
      <point x="585" y="1473" type="line"/>
      <point x="434" y="1473" type="line"/>
      <point x="434" y="1424" type="line"/>
      <point x="585" y="1424" type="line"/>
      <point x="585" y="1087.19" type="line"/>
      <point x="543.341" y="1140.97"/>
      <point x="469.89" y="1202.62"/>
      <point x="362" y="1204" type="curve"/>
      <point x="155" y="1204"/>
      <point x="96" y="1057"/>
      <point x="96" y="698" type="curve" smooth="yes"/>
      <point x="96" y="494" type="line" smooth="yes"/>
      <point x="96" y="131"/>
      <point x="162" y="-20"/>
    </contour>
    <contour>
      <point x="367" y="30" type="curve" smooth="yes"/>
      <point x="205" y="30"/>
      <point x="160" y="154"/>
      <point x="160" y="490" type="curve" smooth="yes"/>
      <point x="160" y="699" type="line" smooth="yes"/>
      <point x="160" y="1035"/>
      <point x="193" y="1154"/>
      <point x="362" y="1154" type="curve" smooth="yes"/>
      <point x="460.505" y="1154"/>
      <point x="540.504" y="1081.88"/>
      <point x="585" y="1030.45" type="curve"/>
      <point x="585" y="152.213" type="line"/>
      <point x="535.292" y="87.4688"/>
      <point x="458.482" y="30"/>
    </contour>
  </outline>
</glyph>
<glyph name="dotlessi" format="1">
  <advance width="336"/>
  <unicode hex="0131"/>
  <outline>
    <contour>
      <point x="136" y="0" type="line"/>
      <point x="200" y="0" type="line"/>
      <point x="200" y="1184" type="line"/>
      <point x="136" y="1184" type="line"/>
    </contour>
  </outline>
</glyph>
<glyph name="oe" format="1">
  <advance width="1236"/>
  <unicode hex="0153"/>
  <outline>
    <contour>
      <point x="375" y="-20" type="curve" smooth="yes"/>
      <point x="515" y="-20"/>
      <point x="598" y="49"/>
      <point x="625" y="195" type="curve"/>
      <point x="662" y="27"/>
      <point x="768" y="-20"/>
      <point x="872" y="-20" type="curve" smooth="yes"/>
      <point x="1088" y="-20"/>
      <point x="1147" y="116"/>
      <point x="1147" y="304" type="curve" smooth="yes"/>
      <point x="1147" y="395" type="line"/>
      <point x="1084" y="395" type="line"/>
      <point x="1084" y="301" type="line" smooth="yes"/>
      <point x="1084" y="28"/>
      <point x="952" y="30"/>
      <point x="872" y="30" type="curve" smooth="yes"/>
      <point x="734" y="30"/>
      <point x="654" y="95"/>
      <point x="654" y="430" type="curve" smooth="yes"/>
      <point x="654" y="631" type="line"/>
      <point x="1145" y="631" type="line"/>
      <point x="1148" y="751" type="line"/>
      <point x="1148" y="1097"/>
      <point x="1066" y="1204"/>
      <point x="876" y="1204" type="curve" smooth="yes"/>
      <point x="770" y="1204"/>
      <point x="667" y="1172"/>
      <point x="623" y="1004" type="curve"/>
      <point x="598" y="1134"/>
      <point x="513" y="1204"/>
      <point x="375" y="1204" type="curve" smooth="yes"/>
      <point x="150" y="1204"/>
      <point x="96" y="1053"/>
      <point x="96" y="747" type="curve" smooth="yes"/>
      <point x="96" y="437" type="line" smooth="yes"/>
      <point x="96" y="128"/>
      <point x="150" y="-20"/>
    </contour>
    <contour>
      <point x="375" y="30" type="curve" smooth="yes"/>
      <point x="184" y="30"/>
      <point x="160" y="171"/>
      <point x="160" y="437" type="curve" smooth="yes"/>
      <point x="160" y="747" type="line" smooth="yes"/>
      <point x="160" y="1013"/>
      <point x="184" y="1154"/>
      <point x="375" y="1154" type="curve" smooth="yes"/>
      <point x="566" y="1154"/>
      <point x="590" y="1013"/>
      <point x="590" y="747" type="curve" smooth="yes"/>
      <point x="590" y="437" type="line" smooth="yes"/>
      <point x="590" y="171"/>
      <point x="566" y="30"/>
    </contour>
    <contour>
      <point x="654" y="675" type="line"/>
      <point x="654" y="775" type="line" smooth="yes"/>
      <point x="654" y="1088"/>
      <point x="731" y="1154"/>
      <point x="876" y="1154" type="curve" smooth="yes"/>
      <point x="1065" y="1154"/>
      <point x="1084" y="998"/>
      <point x="1084" y="761" type="curve" smooth="yes"/>
      <point x="1084" y="675" type="line"/>
    </contour>
  </outline>
</glyph>
<glyph name="tbar" format="1">
  <advance width="500"/>
  <unicode hex="0167"/>
  <outline>
    <contour>
      <point x="355" y="-12" type="curve" smooth="yes"/>
      <point x="381" y="-12"/>
      <point x="427" y="-6"/>
      <point x="450" y="3" type="curve"/>
      <point x="450" y="53" type="line"/>
      <point x="422" y="47"/>
      <point x="388" y="41"/>
      <point x="361" y="41" type="curve" smooth="yes"/>
      <point x="272" y="41"/>
      <point x="259" y="89"/>
      <point x="259" y="233" type="curve" smooth="yes"/>
      <point x="259" y="760" type="line"/>
      <point x="391" y="760" type="line"/>
      <point x="391" y="809" type="line"/>
      <point x="259" y="809" type="line"/>
      <point x="259" y="1142" type="line"/>
      <point x="464" y="1142" type="line"/>
      <point x="464" y="1184" type="line"/>
      <point x="259" y="1184" type="line"/>
      <point x="259" y="1576" type="line"/>
      <point x="195" y="1576" type="line"/>
      <point x="195" y="1184" type="line"/>
      <point x="28" y="1184" type="line"/>
      <point x="28" y="1142" type="line"/>
      <point x="195" y="1142" type="line"/>
      <point x="195" y="809" type="line"/>
      <point x="63" y="809" type="line"/>
      <point x="63" y="760" type="line"/>
      <point x="195" y="760" type="line"/>
      <point x="195" y="221" type="line" smooth="yes"/>
      <point x="195" y="99"/>
      <point x="200" y="-12"/>
    </contour>
  </outline>
</glyph>
<glyph name="caron" format="1">
  <advance width="517"/>
  <unicode hex="02C7"/>
  <outline>
    <contour>
      <point x="246" y="1335" type="line"/>
      <point x="275" y="1335" type="line"/>
      <point x="448" y="1658" type="line"/>
      <point x="386" y="1658" type="line"/>
      <point x="262" y="1405" type="line"/>
      <point x="138" y="1658" type="line"/>
      <point x="75" y="1658" type="line"/>
    </contour>
  </outline>
</glyph>
<glyph name="uni030C" format="1">
  <advance width="0"/>
  <unicode hex="030C"/>
  <outline>
    <contour>
      <point x="-17" y="1335" type="line"/>
      <point x="12" y="1335" type="line"/>
      <point x="185" y="1658" type="line"/>
      <point x="123" y="1658" type="line"/>
      <point x="-1" y="1405" type="line"/>
      <point x="-125" y="1658" type="line"/>
      <point x="-188" y="1658" type="line"/>
    </contour>
  </outline>
</glyph>
<glyph name="afii10055" format="1">
  <advance width="388"/>
  <unicode hex="0406"/>
  <outline>
    <contour>
      <point x="162" y="0" type="line"/>
      <point x="226" y="0" type="line"/>
      <point x="226" y="1658" type="line"/>
      <point x="162" y="1658" type="line"/>
    </contour>
  </outline>
</glyph>
<glyph name="afii10060" format="1">
  <advance width="847"/>
  <unicode hex="040B"/>
  <outline>
    <contour>
      <point x="212" y="0" type="line"/>
      <point x="276" y="0" type="line"/>
      <point x="276" y="826.646" type="line"/>
      <point x="352.336" y="897.529"/>
      <point x="445.485" y="945.15"/>
      <point x="535" y="945.15" type="curve" smooth="yes"/>
      <point x="610" y="945.15"/>
      <point x="671" y="914.847"/>
      <point x="671" y="776.432" type="curve" smooth="yes"/>
      <point x="671" y="0" type="line"/>
      <point x="736" y="0" type="line"/>
      <point x="736" y="769.061" type="line" smooth="yes"/>
      <point x="736" y="947.607"/>
      <point x="637" y="986.102"/>
      <point x="546" y="986.102" type="curve" smooth="yes"/>
      <point x="444.833" y="986.102"/>
      <point x="348.641" y="942.443"/>
      <point x="276" y="870.829" type="curve"/>
      <point x="276" y="1602" type="line"/>
      <point x="641" y="1602" type="line"/>
      <point x="641" y="1658" type="line"/>
      <point x="-158" y="1658" type="line"/>
      <point x="-158" y="1602" type="line"/>
      <point x="212" y="1602" type="line"/>
    </contour>
  </outline>
</glyph>
<glyph name="afii10021" format="1">
  <advance width="1104"/>
  <unicode hex="0414"/>
  <outline>
    <contour>
      <point x="-18" y="-264" type="line"/>
      <point x="35" y="-264" type="line"/>
      <point x="42.7071" y="-9.66502" type="line"/>
      <point x="61.4313" y="-8.66665"/>
      <point x="974" y="0"/>
      <point x="974" y="0" type="curve"/>
      <point x="984" y="-264" type="line"/>
      <point x="1037" y="-264" type="line"/>
      <point x="1037" y="55" type="line"/>
      <point x="931" y="55" type="line"/>
      <point x="931" y="1658" type="line"/>
      <point x="387" y="1658" type="line"/>
      <point x="350" y="1149" type="line" smooth="yes"/>
      <point x="306.816" y="550.991"/>
      <point x="256.581" y="138.061"/>
      <point x="68.5696" y="55" type="curve"/>
      <point x="-18" y="55" type="line"/>
    </contour>
    <contour>
      <point x="182.82" y="55" type="line"/>
      <point x="322.69" y="196.753"/>
      <point x="378.663" y="568.116"/>
      <point x="417" y="1147" type="curve" smooth="yes"/>
      <point x="447" y="1603" type="line"/>
      <point x="867" y="1603" type="line"/>
      <point x="867" y="55" type="line"/>
    </contour>
  </outline>
</glyph>
<glyph name="afii10024" format="1">
  <advance width="1206"/>
  <unicode hex="0416"/>
  <outline>
    <contour>
      <point x="58" y="0" type="line"/>
      <point x="127" y="0" type="line"/>
      <point x="547" y="849" type="line"/>
      <point x="571" y="849" type="line"/>
      <point x="571" y="0" type="line"/>
      <point x="635" y="0" type="line"/>
      <point x="635" y="849" type="line"/>
      <point x="659" y="849" type="line"/>
      <point x="1079" y="0" type="line"/>
      <point x="1148" y="0" type="line"/>
      <point x="709" y="873" type="line"/>
      <point x="1109" y="1658" type="line"/>
      <point x="1043" y="1658" type="line"/>
      <point x="651" y="887" type="line"/>
      <point x="635" y="887" type="line"/>
      <point x="635" y="1658" type="line"/>
      <point x="571" y="1658" type="line"/>
      <point x="571" y="887" type="line"/>
      <point x="555" y="887" type="line"/>
      <point x="163" y="1658" type="line"/>
      <point x="97" y="1658" type="line"/>
      <point x="497" y="873" type="line"/>
    </contour>
  </outline>
</glyph>
<glyph name="afii10029" format="1">
  <advance width="1122"/>
  <unicode hex="041B"/>
  <outline>
    <contour>
      <point x="60" y="-10" type="line"/>
      <point x="317" y="-10"/>
      <point x="397" y="392"/>
      <point x="447" y="1147" type="curve" smooth="yes"/>
      <point x="477" y="1603" type="line"/>
      <point x="897" y="1603" type="line"/>
      <point x="897" y="0" type="line"/>
      <point x="961" y="0" type="line"/>
      <point x="961" y="1658" type="line"/>
      <point x="417" y="1658" type="line"/>
      <point x="380" y="1149" type="line" smooth="yes"/>
      <point x="334" y="512"/>
      <point x="280" y="85"/>
      <point x="60" y="43" type="curve"/>
    </contour>
  </outline>
</glyph>
<glyph name="afii10033" format="1">
  <advance width="1093"/>
  <unicode hex="041F"/>
  <outline>
    <contour>
      <point x="162" y="0" type="line"/>
      <point x="226" y="0" type="line"/>
      <point x="226" y="1606" type="line"/>
      <point x="867" y="1606" type="line"/>
      <point x="867" y="0" type="line"/>
      <point x="931" y="0" type="line"/>
      <point x="931" y="1658" type="line"/>
      <point x="162" y="1658" type="line"/>
    </contour>
  </outline>
</glyph>
<glyph name="afii10036" format="1">
  <advance width="743"/>
  <unicode hex="0422"/>
  <outline>
    <contour>
      <point x="381" y="0" type="line"/>
      <point x="445" y="0" type="line"/>
      <point x="445" y="1602" type="line"/>
      <point x="810" y="1602" type="line"/>
      <point x="810" y="1658" type="line"/>
      <point x="11" y="1658" type="line"/>
      <point x="11" y="1602" type="line"/>
      <point x="381" y="1602" type="line"/>
    </contour>
  </outline>
</glyph>
<glyph name="afii10037" format="1">
  <advance width="927"/>
  <unicode hex="0423"/>
  <outline>
    <contour>
      <point x="292" y="0" type="line"/>
      <point x="357" y="0" type="line"/>
      <point x="516.622" y="561.045"/>
      <point x="691.515" y="1106.82"/>
      <point x="861" y="1658" type="curve"/>
      <point x="794" y="1658" type="line"/>
      <point x="484" y="644" type="line"/>
      <point x="132" y="1658" type="line"/>
      <point x="65" y="1658" type="line"/>
      <point x="453" y="559" type="line"/>
    </contour>
  </outline>
</glyph>
<glyph name="afii10038" format="1">
  <advance width="1158"/>
  <unicode hex="0424"/>
  <outline>
    <contour>
      <point x="545" y="0" type="line"/>
      <point x="609" y="0" type="line"/>
      <point x="609" y="204.839" type="line"/>
      <point x="647.438" y="200.792"/>
      <point x="697.266" y="199"/>
      <point x="722" y="199" type="curve" smooth="yes"/>
      <point x="931" y="199"/>
      <point x="1032" y="340"/>
      <point x="1032" y="606" type="curve" smooth="yes"/>
      <point x="1032" y="1060" type="line" smooth="yes"/>
      <point x="1032" y="1333"/>
      <point x="927" y="1498"/>
      <point x="710" y="1498" type="curve" smooth="yes"/>
      <point x="688.994" y="1498"/>
      <point x="643.785" y="1496.31"/>
      <point x="609" y="1492.93" type="curve"/>
      <point x="609" y="1658" type="line"/>
      <point x="545" y="1658" type="line"/>
      <point x="545" y="1492.1" type="line"/>
      <point x="514.541" y="1494.03"/>
      <point x="477.372" y="1495"/>
      <point x="460" y="1495" type="curve" smooth="yes"/>
      <point x="235" y="1495"/>
      <point x="126" y="1335"/>
      <point x="126" y="1060" type="curve" smooth="yes"/>
      <point x="126" y="606" type="line" smooth="yes"/>
      <point x="126" y="338"/>
      <point x="227" y="199"/>
      <point x="435" y="199" type="curve" smooth="yes"/>
      <point x="458.918" y="199"/>
      <point x="506.86" y="200.676"/>
      <point x="545" y="204.446" type="curve"/>
    </contour>
    <contour>
      <point x="444" y="249" type="curve" smooth="yes"/>
      <point x="267" y="249"/>
      <point x="190" y="377"/>
      <point x="190" y="606" type="curve" smooth="yes"/>
      <point x="190" y="1060" type="line" smooth="yes"/>
      <point x="190" y="1293"/>
      <point x="270" y="1446"/>
      <point x="455" y="1446" type="curve" smooth="yes"/>
      <point x="473.41" y="1446"/>
      <point x="512.876" y="1444.5"/>
      <point x="545" y="1441.49" type="curve"/>
      <point x="545" y="254.211" type="line"/>
      <point x="509.467" y="250.606"/>
      <point x="465.221" y="249"/>
    </contour>
    <contour>
      <point x="714" y="249" type="curve" smooth="yes"/>
      <point x="691.975" y="249"/>
      <point x="645.147" y="250.73"/>
      <point x="609" y="254.629" type="curve"/>
      <point x="609" y="1441.1" type="line"/>
      <point x="641.777" y="1444.37"/>
      <point x="683.819" y="1446"/>
      <point x="703" y="1446" type="curve" smooth="yes"/>
      <point x="888" y="1446"/>
      <point x="968" y="1293"/>
      <point x="968" y="1060" type="curve" smooth="yes"/>
      <point x="968" y="606" type="line" smooth="yes"/>
      <point x="968" y="377"/>
      <point x="891" y="249"/>
    </contour>
  </outline>
</glyph>
<glyph name="afii10040" format="1">
  <advance width="1082"/>
  <unicode hex="0426"/>
  <outline>
    <contour>
      <point x="980" y="-264" type="line"/>
      <point x="1034" y="-264" type="line"/>
      <point x="1034" y="52" type="line"/>
      <point x="927" y="52" type="line"/>
      <point x="927" y="1658" type="line"/>
      <point x="863" y="1658" type="line"/>
      <point x="863" y="52" type="line"/>
      <point x="225" y="52" type="line"/>
      <point x="225" y="1658" type="line"/>
      <point x="161" y="1658" type="line"/>
      <point x="161" y="0" type="line"/>
      <point x="970" y="0" type="line"/>
    </contour>
  </outline>
</glyph>
<glyph name="afii10041" format="1">
  <advance width="1006"/>
  <unicode hex="0427"/>
  <outline>
    <contour>
      <point x="780" y="0" type="line"/>
      <point x="844" y="0" type="line"/>
      <point x="844" y="1658" type="line"/>
      <point x="780" y="1658" type="line"/>
      <point x="780" y="828.834" type="line"/>
      <point x="725.587" y="806.283"/>
      <point x="637.076" y="788"/>
      <point x="541" y="788" type="curve" smooth="yes"/>
      <point x="357" y="788"/>
      <point x="182" y="829"/>
      <point x="182" y="1081" type="curve" smooth="yes"/>
      <point x="182" y="1658" type="line"/>
      <point x="118" y="1658" type="line"/>
      <point x="118" y="1080" type="line" smooth="yes"/>
      <point x="118" y="820"/>
      <point x="288" y="734"/>
      <point x="537" y="734" type="curve" smooth="yes"/>
      <point x="611.921" y="734"/>
      <point x="693.834" y="746.43"/>
      <point x="780" y="772.661" type="curve"/>
    </contour>
  </outline>
</glyph>
<glyph name="afii10045" format="1">
  <advance width="1420"/>
  <unicode hex="042B"/>
  <outline>
    <contour>
      <point x="162" y="0" type="line"/>
      <point x="462" y="0" type="line" smooth="yes"/>
      <point x="769" y="0"/>
      <point x="869" y="215"/>
      <point x="869" y="463" type="curve" smooth="yes"/>
      <point x="869" y="766"/>
      <point x="745" y="956"/>
      <point x="461" y="956" type="curve" smooth="yes"/>
      <point x="226" y="956" type="line"/>
      <point x="226" y="1658" type="line"/>
      <point x="162" y="1658" type="line"/>
    </contour>
    <contour>
      <point x="226" y="61" type="line"/>
      <point x="226" y="895" type="line"/>
      <point x="466" y="895" type="line" smooth="yes"/>
      <point x="714" y="895"/>
      <point x="799" y="721"/>
      <point x="799" y="466" type="curve" smooth="yes"/>
      <point x="799" y="229"/>
      <point x="723" y="61"/>
      <point x="466" y="61" type="curve" smooth="yes"/>
    </contour>
    <contour>
      <point x="1194" y="0" type="line"/>
      <point x="1258" y="0" type="line"/>
      <point x="1258" y="1658" type="line"/>
      <point x="1194" y="1658" type="line"/>
    </contour>
  </outline>
</glyph>
<glyph name="afii10049" format="1">
  <advance width="1059"/>
  <unicode hex="042F"/>
  <outline>
    <contour>
      <point x="92" y="0" type="line"/>
      <point x="161" y="0" type="line"/>
      <point x="417.881" y="764.716" type="line"/>
      <point x="446.652" y="759.643"/>
      <point x="477.966" y="757"/>
      <point x="512" y="757" type="curve" smooth="yes"/>
      <point x="833" y="757" type="line"/>
      <point x="833" y="0" type="line"/>
      <point x="897" y="0" type="line"/>
      <point x="897" y="1658" type="line"/>
      <point x="510" y="1658" type="line" smooth="yes"/>
      <point x="205" y="1658"/>
      <point x="124" y="1447"/>
      <point x="124" y="1224" type="curve" smooth="yes"/>
      <point x="124" y="1012.96"/>
      <point x="181.305" y="839.916"/>
      <point x="358.431" y="779.773" type="curve"/>
    </contour>
    <contour>
      <point x="512" y="811" type="line" smooth="yes"/>
      <point x="279" y="811"/>
      <point x="189" y="942"/>
      <point x="189" y="1223" type="curve" smooth="yes"/>
      <point x="189" y="1501"/>
      <point x="309" y="1603"/>
      <point x="509" y="1603" type="curve" smooth="yes"/>
      <point x="833" y="1603" type="line"/>
      <point x="833" y="811" type="line"/>
    </contour>
  </outline>
</glyph>
<glyph name="afii10066" format="1">
  <advance width="764"/>
  <unicode hex="0431"/>
  <outline>
    <contour>
      <point x="384" y="-20" type="curve" smooth="yes"/>
      <point x="595" y="-13"/>
      <point x="668" y="131"/>
      <point x="668" y="494" type="curve" smooth="yes"/>
      <point x="668" y="635" type="line" smooth="yes"/>
      <point x="668" y="994"/>
      <point x="618" y="1121"/>
      <point x="411" y="1121" type="curve"/>
      <point x="297" y="1120"/>
      <point x="217" y="1051"/>
      <point x="174" y="995" type="curve"/>
      <point x="174" y="1154" type="line" smooth="yes"/>
      <point x="174" y="1590"/>
      <point x="359" y="1506"/>
      <point x="604" y="1629" type="curve"/>
      <point x="604" y="1687" type="line"/>
      <point x="411" y="1564"/>
      <point x="110" y="1652"/>
      <point x="110" y="1156" type="curve" smooth="yes"/>
      <point x="110" y="291" type="line" smooth="yes"/>
      <point x="110" y="77"/>
      <point x="233" y="-25"/>
    </contour>
    <contour>
      <point x="384" y="30" type="curve" smooth="yes"/>
      <point x="252" y="26"/>
      <point x="174" y="118"/>
      <point x="174" y="291" type="curve" smooth="yes"/>
      <point x="174" y="940" type="line"/>
      <point x="219" y="991"/>
      <point x="307" y="1071"/>
      <point x="411" y="1071" type="curve" smooth="yes"/>
      <point x="580" y="1071"/>
      <point x="604" y="972"/>
      <point x="604" y="636" type="curve" smooth="yes"/>
      <point x="604" y="490" type="line" smooth="yes"/>
      <point x="604" y="154"/>
      <point x="556" y="35"/>
    </contour>
  </outline>
</glyph>
<glyph name="afii10072" format="1">
  <advance width="977"/>
  <unicode hex="0436"/>
  <outline>
    <contour>
      <point x="8" y="0" type="line"/>
      <point x="71" y="0" type="line"/>
      <point x="439" y="594" type="line"/>
      <point x="461.831" y="594" type="line"/>
      <point x="461.831" y="0" type="line"/>
      <point x="518.166" y="0" type="line"/>
      <point x="518.166" y="594" type="line"/>
      <point x="539" y="594" type="line"/>
      <point x="906" y="0" type="line"/>
      <point x="969" y="0" type="line"/>
      <point x="589" y="609" type="line"/>
      <point x="951" y="1184" type="line"/>
      <point x="891" y="1184" type="line"/>
      <point x="538" y="619" type="line"/>
      <point x="518.166" y="619" type="line"/>
      <point x="518.166" y="1184" type="line"/>
      <point x="461.831" y="1184" type="line"/>
      <point x="461.831" y="619" type="line"/>
      <point x="441" y="619" type="line"/>
      <point x="86" y="1184" type="line"/>
      <point x="25" y="1184" type="line"/>
      <point x="388" y="609" type="line"/>
    </contour>
  </outline>
</glyph>
<glyph name="afii10076" format="1">
  <advance width="733"/>
  <unicode hex="043A"/>
  <outline>
    <contour>
      <point x="118" y="0" type="line"/>
      <point x="182" y="0" type="line"/>
      <point x="182" y="413.8" type="line"/>
      <point x="351" y="666" type="line"/>
      <point x="637" y="0" type="line"/>
      <point x="702" y="0" type="line"/>
      <point x="397" y="716" type="line"/>
      <point x="699" y="1184" type="line"/>
      <point x="631" y="1184" type="line"/>
      <point x="182" y="496.794" type="line"/>
      <point x="182" y="1184" type="line"/>
      <point x="118" y="1184" type="line"/>
    </contour>
  </outline>
</glyph>
<glyph name="afii10081" format="1">
  <advance width="801"/>
  <unicode hex="043F"/>
  <outline>
    <contour>
      <point x="118" y="0" type="line"/>
      <point x="182" y="0" type="line"/>
      <point x="182" y="1129" type="line"/>
      <point x="619" y="1129" type="line"/>
      <point x="619" y="0" type="line"/>
      <point x="683" y="0" type="line"/>
      <point x="683" y="1184" type="line"/>
      <point x="118" y="1184" type="line"/>
    </contour>
  </outline>
</glyph>
<glyph name="afii10086" format="1">
  <advance width="1032"/>
  <unicode hex="0444"/>
  <outline>
    <contour>
      <point x="486" y="-390" type="line"/>
      <point x="544" y="-390" type="line"/>
      <point x="544" y="2" type="line"/>
      <point x="699" y="-20" type="line"/>
      <point x="877" y="-41"/>
      <point x="936" y="41"/>
      <point x="936" y="404" type="curve" smooth="yes"/>
      <point x="936" y="768" type="line" smooth="yes"/>
      <point x="936" y="1127"/>
      <point x="884" y="1219"/>
      <point x="703" y="1204" type="curve"/>
      <point x="544" y="1185" type="line"/>
      <point x="544" y="1658" type="line"/>
      <point x="486" y="1658" type="line"/>
      <point x="486" y="1185" type="line"/>
      <point x="329" y="1204" type="line"/>
      <point x="148" y="1219"/>
      <point x="96" y="1127"/>
      <point x="96" y="768" type="curve" smooth="yes"/>
      <point x="96" y="404" type="line" smooth="yes"/>
      <point x="96" y="41"/>
      <point x="155" y="-41"/>
      <point x="333" y="-20" type="curve"/>
      <point x="486" y="1" type="line"/>
    </contour>
    <contour>
      <point x="333" y="30" type="line"/>
      <point x="191" y="18"/>
      <point x="152" y="64"/>
      <point x="152" y="400" type="curve" smooth="yes"/>
      <point x="152" y="769" type="line" smooth="yes"/>
      <point x="152" y="1105"/>
      <point x="181" y="1165"/>
      <point x="329" y="1154" type="curve"/>
      <point x="486" y="1137" type="line"/>
      <point x="486" y="46" type="line"/>
    </contour>
    <contour>
      <point x="699" y="30" type="curve"/>
      <point x="544" y="46" type="line"/>
      <point x="544" y="1136" type="line"/>
      <point x="703" y="1154" type="line"/>
      <point x="851" y="1165"/>
      <point x="880" y="1105"/>
      <point x="880" y="769" type="curve" smooth="yes"/>
      <point x="880" y="400" type="line" smooth="yes"/>
      <point x="880" y="64"/>
      <point x="841" y="18"/>
    </contour>
  </outline>
</glyph>
<glyph name="afii10091" format="1">
  <advance width="1096"/>
  <unicode hex="0449"/>
  <outline>
    <contour>
      <point x="994" y="-264" type="line"/>
      <point x="1043" y="-264" type="line"/>
      <point x="1043" y="44" type="line"/>
      <point x="961.272" y="44" type="line"/>
      <point x="961.272" y="1184" type="line"/>
      <point x="899.437" y="1184" type="line"/>
      <point x="899.437" y="44" type="line"/>
      <point x="577.272" y="44" type="line"/>
      <point x="577.272" y="1184" type="line"/>
      <point x="515.437" y="1184" type="line"/>
      <point x="515.437" y="44" type="line"/>
      <point x="180.272" y="44" type="line"/>
      <point x="180.272" y="1184" type="line"/>
      <point x="118.437" y="1184" type="line"/>
      <point x="118.437" y="0" type="line"/>
      <point x="984" y="0" type="line"/>
    </contour>
  </outline>
</glyph>
<glyph name="afii10099" format="1">
  <advance width="790"/>
  <unicode hex="0452"/>
  <outline>
    <contour>
      <point x="375" y="-224" type="line"/>
      <point x="416" y="-224" type="line" smooth="yes"/>
      <point x="677" y="-224"/>
      <point x="679" y="-43"/>
      <point x="679" y="204" type="curve" smooth="yes"/>
      <point x="679" y="984.487" type="line" smooth="yes"/>
      <point x="679" y="1165.69"/>
      <point x="580" y="1204.75"/>
      <point x="489" y="1204.75" type="curve" smooth="yes"/>
      <point x="380.704" y="1204.75"/>
      <point x="278.108" y="1153.98"/>
      <point x="204" y="1071.99" type="curve"/>
      <point x="204" y="1432" type="line"/>
      <point x="580" y="1432" type="line"/>
      <point x="580" y="1473" type="line"/>
      <point x="204" y="1473" type="line"/>
      <point x="204" y="1658" type="line"/>
      <point x="140" y="1658" type="line"/>
      <point x="140" y="1473" type="line"/>
      <point x="0" y="1473" type="line"/>
      <point x="0" y="1432" type="line"/>
      <point x="140" y="1432" type="line"/>
      <point x="140" y="0" type="line"/>
      <point x="204" y="0" type="line"/>
      <point x="204" y="1028.27" type="line"/>
      <point x="282.931" y="1108.22"/>
      <point x="382.532" y="1163.19"/>
      <point x="478" y="1163.19" type="curve" smooth="yes"/>
      <point x="553" y="1163.19"/>
      <point x="614" y="1132.44"/>
      <point x="614" y="991.968" type="curve" smooth="yes"/>
      <point x="614" y="204" type="line" smooth="yes"/>
      <point x="614" y="-47"/>
      <point x="613" y="-172"/>
      <point x="417" y="-172" type="curve" smooth="yes"/>
      <point x="375" y="-172" type="line"/>
    </contour>
  </outline>
</glyph>
<glyph name="afii10102" format="1">
  <advance width="699"/>
  <unicode hex="0455"/>
  <outline>
    <contour>
      <point x="377" y="-20" type="curve" smooth="yes"/>
      <point x="546" y="-20"/>
      <point x="651" y="80"/>
      <point x="651" y="240" type="curve"/>
      <point x="647" y="418"/>
      <point x="531" y="516"/>
      <point x="416" y="615" type="curve" smooth="yes"/>
      <point x="303" y="712" type="line" smooth="yes"/>
      <point x="184" y="814"/>
      <point x="156" y="874"/>
      <point x="156" y="980" type="curve" smooth="yes"/>
      <point x="156" y="1099"/>
      <point x="238" y="1154"/>
      <point x="353" y="1154" type="curve" smooth="yes"/>
      <point x="468" y="1154"/>
      <point x="548" y="1090"/>
      <point x="550" y="882" type="curve"/>
      <point x="604" y="894" type="line"/>
      <point x="600" y="1091"/>
      <point x="520" y="1204"/>
      <point x="350" y="1204" type="curve" smooth="yes"/>
      <point x="197" y="1204"/>
      <point x="95" y="1119"/>
      <point x="95" y="967" type="curve" smooth="yes"/>
      <point x="95" y="855"/>
      <point x="142" y="773"/>
      <point x="276" y="661" type="curve" smooth="yes"/>
      <point x="387" y="568" type="line" smooth="yes"/>
      <point x="532" y="447"/>
      <point x="591" y="343"/>
      <point x="591" y="245" type="curve" smooth="yes"/>
      <point x="591" y="105"/>
      <point x="514" y="30"/>
      <point x="380" y="30" type="curve" smooth="yes"/>
      <point x="231" y="30"/>
      <point x="139" y="119"/>
      <point x="125" y="336" type="curve"/>
      <point x="70" y="320" type="line"/>
      <point x="86" y="109"/>
      <point x="194" y="-20"/>
    </contour>
  </outline>
</glyph>
<glyph name="afii10193" format="1">
  <advance width="790"/>
  <unicode hex="045F"/>
  <outline>
    <contour>
      <point x="378" y="-264" type="line"/>
      <point x="422" y="-264" type="line"/>
      <point x="431.135" y="0" type="line"/>
      <point x="672" y="0" type="line"/>
      <point x="672" y="1184" type="line"/>
      <point x="608" y="1184" type="line"/>
      <point x="608" y="52" type="line"/>
      <point x="182" y="52" type="line"/>
      <point x="182" y="1184" type="line"/>
      <point x="118" y="1184" type="line"/>
      <point x="118" y="0" type="line"/>
      <point x="368.865" y="1.77636e-15" type="line"/>
    </contour>
  </outline>
</glyph>
<glyph name="uni04AE" format="1">
  <advance width="830"/>
  <unicode hex="04AE"/>
  <outline>
    <contour>
      <point x="390" y="0" type="line"/>
      <point x="457" y="0" type="line"/>
      <point x="459.558" y="883" type="line"/>
      <point x="832" y="1658" type="line"/>
      <point x="760" y="1658" type="line"/>
      <point x="426" y="953" type="line"/>
      <point x="72" y="1658" type="line"/>
      <point x="-2" y="1658" type="line"/>
      <point x="390" y="883" type="line"/>
    </contour>
  </outline>
</glyph>
<glyph name="uni04B1" format="1">
  <advance width="753"/>
  <unicode hex="04B1"/>
  <outline>
    <contour>
      <point x="120" y="-128" type="line"/>
      <point x="637" y="-128" type="line"/>
      <point x="637" y="-77" type="line"/>
      <point x="120" y="-77" type="line"/>
    </contour>
    <component base="uni04AF"/>
  </outline>
</glyph>
<glyph name="quoteright" format="1">
  <advance width="568"/>
  <unicode hex="2019"/>
  <outline>
    <contour>
      <point x="280" y="1283" type="line"/>
      <point x="352" y="1344"/>
      <point x="363" y="1403"/>
      <point x="363" y="1522" type="curve" smooth="yes"/>
      <point x="363" y="1658" type="line"/>
      <point x="273" y="1658" type="line"/>
      <point x="273" y="1492" type="line"/>
      <point x="322" y="1492" type="line"/>
      <point x="322" y="1403"/>
      <point x="317" y="1363"/>
      <point x="250" y="1300" type="curve"/>
    </contour>
  </outline>
</glyph>
<glyph name="quotedblright" format="1">
  <advance width="970"/>
  <unicode hex="201D"/>
  <outline>
    <contour>
      <point x="366" y="1283" type="line"/>
      <point x="438" y="1344"/>
      <point x="449" y="1403"/>
      <point x="449" y="1522" type="curve" smooth="yes"/>
      <point x="449" y="1658" type="line"/>
      <point x="359" y="1658" type="line"/>
      <point x="359" y="1492" type="line"/>
      <point x="408" y="1492" type="line"/>
      <point x="408" y="1403"/>
      <point x="403" y="1363"/>
      <point x="336" y="1300" type="curve"/>
    </contour>
    <contour>
      <point x="555" y="1283" type="line"/>
      <point x="627" y="1344"/>
      <point x="638" y="1403"/>
      <point x="638" y="1522" type="curve" smooth="yes"/>
      <point x="638" y="1658" type="line"/>
      <point x="548" y="1658" type="line"/>
      <point x="548" y="1492" type="line"/>
      <point x="597" y="1492" type="line"/>
      <point x="597" y="1403"/>
      <point x="592" y="1363"/>
      <point x="525" y="1300" type="curve"/>
    </contour>
  </outline>
</glyph>
<glyph name="quotedblbase" format="1">
  <advance width="644"/>
  <unicode hex="201E"/>
  <outline>
    <contour>
      <point x="187" y="-210" type="line"/>
      <point x="259" y="-149"/>
      <point x="270" y="-90"/>
      <point x="270" y="29" type="curve" smooth="yes"/>
      <point x="270" y="165" type="line"/>
      <point x="180" y="165" type="line"/>
      <point x="180" y="-1" type="line"/>
      <point x="229" y="-1" type="line"/>
      <point x="229" y="-90"/>
      <point x="224" y="-130"/>
      <point x="157" y="-193" type="curve"/>
    </contour>
    <contour>
      <point x="401" y="-210" type="line"/>
      <point x="473" y="-149"/>
      <point x="484" y="-90"/>
      <point x="484" y="29" type="curve" smooth="yes"/>
      <point x="484" y="165" type="line"/>
      <point x="394" y="165" type="line"/>
      <point x="394" y="-1" type="line"/>
      <point x="443" y="-1" type="line"/>
      <point x="443" y="-90"/>
      <point x="438" y="-130"/>
      <point x="371" y="-193" type="curve"/>
    </contour>
  </outline>
</glyph>
<glyph name="bullet" format="1">
  <advance width="462"/>
  <unicode hex="2022"/>
  <outline>
    <contour>
      <point x="230" y="672" type="curve" smooth="yes"/>
      <point x="313" y="672"/>
      <point x="354" y="734"/>
      <point x="354" y="797" type="curve" smooth="yes"/>
      <point x="354" y="859"/>
      <point x="313" y="921"/>
      <point x="230" y="921" type="curve" smooth="yes"/>
      <point x="149" y="921"/>
      <point x="108" y="859"/>
      <point x="108" y="797" type="curve" smooth="yes"/>
      <point x="108" y="734"/>
      <point x="149" y="672"/>
    </contour>
  </outline>
</glyph>
<glyph name="radical" format="1">
  <advance width="909"/>
  <unicode hex="221A"/>
  <outline>
    <contour>
      <point x="426" y="0" type="line"/>
      <point x="506" y="0" type="line"/>
      <point x="885" y="1658" type="line"/>
      <point x="815" y="1658" type="line"/>
      <point x="755.539" y="1399.125"/>
      <point x="696.75325" y="1139.5775"/>
      <point x="638.600625" y="879.3975" type="curve" smooth="yes"/>
      <point x="580.448" y="619.2175"/>
      <point x="522.9285" y="358.405"/>
      <point x="466" y="97" type="curve"/>
      <point x="423.2785" y="278.2785"/>
      <point x="381.2795" y="460.2795"/>
      <point x="338.835375" y="641.835375" type="curve" smooth="yes"/>
      <point x="296.39125" y="823.39125"/>
      <point x="253.502" y="1004.502"/>
      <point x="209" y="1184" type="curve"/>
      <point x="-10" y="1184" type="line"/>
      <point x="-10" y="1128" type="line"/>
      <point x="152" y="1128" type="line"/>
    </contour>
  </outline>
</glyph>
<glyph name="greaterequal" format="1">
  <advance width="673"/>
  <unicode hex="2265"/>
  <outline>
    <contour>
      <point x="62" y="191" type="line"/>
      <point x="606" y="636" type="line"/>
      <point x="606" y="695" type="line"/>
      <point x="62" y="1118" type="line"/>
      <point x="62" y="1046" type="line"/>
      <point x="552" y="666" type="line"/>
      <point x="62" y="265" type="line"/>
    </contour>
    <contour>
      <point x="62" y="0" type="line"/>
      <point x="611" y="0" type="line"/>
      <point x="611" y="54" type="line"/>
      <point x="62" y="54" type="line"/>
    </contour>
  </outline>
</glyph>
<glyph name="uniFB03" format="1">
  <advance width="1351"/>
  <unicode hex="FB03"/>
  <outline>
    <contour>
      <point x="1133" y="1331" type="line"/>
      <point x="1197" y="1331" type="line"/>
      <point x="1197" y="1503" type="line"/>
      <point x="1133" y="1503" type="line"/>
    </contour>
    <contour>
      <point x="200" y="0" type="line"/>
      <point x="264" y="0" type="line"/>
      <point x="264" y="1142" type="line"/>
      <point x="671" y="1142" type="line"/>
      <point x="671" y="0" type="line"/>
      <point x="735" y="0" type="line"/>
      <point x="735" y="1142" type="line"/>
      <point x="1133" y="1142" type="line"/>
      <point x="1133" y="0" type="line"/>
      <point x="1197" y="0" type="line"/>
      <point x="1197" y="1184" type="line"/>
      <point x="735" y="1184" type="line"/>
      <point x="735" y="1372" type="line" smooth="yes"/>
      <point x="735" y="1516"/>
      <point x="749" y="1564"/>
      <point x="844" y="1564" type="curve" smooth="yes"/>
      <point x="871" y="1564"/>
      <point x="905" y="1558"/>
      <point x="933" y="1552" type="curve"/>
      <point x="933" y="1602" type="line"/>
      <point x="910" y="1611"/>
      <point x="864" y="1617"/>
      <point x="838" y="1617" type="curve" smooth="yes"/>
      <point x="676" y="1617"/>
      <point x="671" y="1506"/>
      <point x="671" y="1384" type="curve" smooth="yes"/>
      <point x="671" y="1184" type="line"/>
      <point x="264" y="1184" type="line"/>
      <point x="264" y="1372" type="line" smooth="yes"/>
      <point x="264" y="1516"/>
      <point x="278" y="1564"/>
      <point x="373" y="1564" type="curve" smooth="yes"/>
      <point x="400" y="1564"/>
      <point x="434" y="1558"/>
      <point x="462" y="1552" type="curve"/>
      <point x="462" y="1602" type="line"/>
      <point x="439" y="1611"/>
      <point x="393" y="1617"/>
      <point x="367" y="1617" type="curve" smooth="yes"/>
      <point x="205" y="1617"/>
      <point x="200" y="1506"/>
      <point x="200" y="1384" type="curve" smooth="yes"/>
      <point x="200" y="1184" type="line"/>
      <point x="33" y="1184" type="line"/>
      <point x="33" y="1142" type="line"/>
      <point x="200" y="1142" type="line"/>
    </contour>
  </outline>
</glyph>
<glyph name="uni0302" format="1">
  <advance width="637"/>
  <outline>
    <contour>
      <point x="89" y="1287" type="line"/>
      <point x="134" y="1287" type="line"/>
      <point x="315" y="1627" type="line"/>
      <point x="496" y="1287" type="line"/>
      <point x="537" y="1287" type="line"/>
      <point x="366" y="1658" type="line"/>
      <point x="266" y="1658" type="line"/>
    </contour>
  </outline>
</glyph>
